<?xml version="1.0" encoding="utf-8"?>
<!-- Generator: Adobe Illustrator 18.1.1, SVG Export Plug-In . SVG Version: 6.00 Build 0)  -->
<!DOCTYPE svg PUBLIC "-//W3C//DTD SVG 1.1//EN" "http://www.w3.org/Graphics/SVG/1.1/DTD/svg11.dtd">
<svg version="1.1" xmlns="http://www.w3.org/2000/svg" xmlns:xlink="http://www.w3.org/1999/xlink" x="0px" y="0px"
	 viewBox="0 0 135 135" enable-background="new 0 0 135 135" xml:space="preserve">
<g id="Layer_1">
	<g>
		<g>
			<path fill="#EDE929" d="M51.1,78c0,14-11.3,25.2-25.2,25.2C12,103.2,0.7,92,0.7,78H51.1z"/>
			<path fill="#EDE929" d="M129.1,78c0,14-11.3,25.2-25.2,25.2C90,103.2,78.7,92,78.7,78H129.1z"/>
			<rect x="60" y="16.1" fill="#EDE929" width="9.7" height="102.6"/>
			<rect x="30" y="114.8" fill="#EDE929" width="69.7" height="9.5"/>
			<rect x="38.3" y="110.5" fill="#EDE929" width="53.3" height="8.2"/>
			<rect x="63.8" y="4.9" fill="#EDE929" width="2.2" height="14.4"/>
			<rect x="61.2" y="12.2" fill="#EDE929" width="7.5" height="5.6"/>
			<rect x="13.7" y="8.3" fill="#EDE929" width="102.4" height="3"/>
		</g>
		<polygon fill="none" stroke="#EDE929" stroke-width="2" stroke-linejoin="bevel" stroke-miterlimit="10" points="25.7,10.7 
			48.5,80.1 26.1,80 3.1,80 		"/>
		<polygon fill="none" stroke="#EDE929" stroke-width="2" stroke-linejoin="bevel" stroke-miterlimit="10" points="103.8,10.7 
			126.6,80.1 104.2,80 81.2,80 		"/>
		
			<circle fill="none" stroke="#EDE929" stroke-width="2" stroke-linejoin="bevel" stroke-miterlimit="10" cx="18.2" cy="72.9" r="3.7"/>
		<circle fill="none" stroke="#EDE929" stroke-width="2" stroke-linejoin="bevel" stroke-miterlimit="10" cx="36" cy="68" r="4.2"/>
		
			<circle fill="none" stroke="#EDE929" stroke-width="2" stroke-linejoin="bevel" stroke-miterlimit="10" cx="25" cy="61.7" r="3.4"/>
		
			<circle fill="none" stroke="#EDE929" stroke-width="2" stroke-linejoin="bevel" stroke-miterlimit="10" cx="32.4" cy="82.7" r="7.9"/>
		
			<circle fill="none" stroke="#EDE929" stroke-width="2" stroke-linejoin="bevel" stroke-miterlimit="10" cx="104.6" cy="78.9" r="5.4"/>
		
			<circle fill="none" stroke="#EDE929" stroke-width="2" stroke-linejoin="bevel" stroke-miterlimit="10" cx="115.1" cy="72.9" r="2.2"/>
		
			<circle fill="none" stroke="#EDE929" stroke-width="2" stroke-linejoin="bevel" stroke-miterlimit="10" cx="94.5" cy="64.5" r="1.9"/>
		
			<circle fill="none" stroke="#EDE929" stroke-width="2" stroke-linejoin="bevel" stroke-miterlimit="10" cx="15" cy="64.1" r="1.4"/>
	</g>
</g>
<g id="Layer_2">
	<g>
		<path fill="#FEBC11" d="M55.1,80c0,14-11.3,25.2-25.2,25.2C16,105.2,4.7,94,4.7,80H55.1z"/>
		<path fill="#FEBC11" d="M133.1,80c0,14-11.3,25.2-25.2,25.2C94,105.2,82.7,94,82.7,80H133.1z"/>
		<rect x="64" y="18.1" fill="#FEBC11" width="9.7" height="102.6"/>
		<rect x="34" y="116.8" fill="#FEBC11" width="69.7" height="9.5"/>
		<rect x="42.3" y="112.5" fill="#FEBC11" width="53.3" height="8.2"/>
		<rect x="67.8" y="6.9" fill="#FEBC11" width="2.2" height="14.4"/>
		<rect x="65.2" y="14.2" fill="#FEBC11" width="7.5" height="5.6"/>
		<rect x="17.7" y="10.3" fill="#FEBC11" width="102.4" height="3"/>
		<g>
			<polygon fill="none" stroke="#FEBC11" stroke-width="2" stroke-linejoin="bevel" stroke-miterlimit="10" points="29.7,12.7 
				52.5,82.1 30.1,82 7.1,82 			"/>
			<polygon fill="none" stroke="#FEBC11" stroke-width="2" stroke-linejoin="bevel" stroke-miterlimit="10" points="107.8,12.7 
				130.6,82.1 108.2,82 85.2,82 			"/>
			
				<circle fill="none" stroke="#FEBC11" stroke-width="2" stroke-linejoin="bevel" stroke-miterlimit="10" cx="22.2" cy="74.9" r="3.7"/>
			
				<circle fill="none" stroke="#FEBC11" stroke-width="2" stroke-linejoin="bevel" stroke-miterlimit="10" cx="40" cy="70" r="4.2"/>
			
				<circle fill="none" stroke="#FEBC11" stroke-width="2" stroke-linejoin="bevel" stroke-miterlimit="10" cx="29" cy="63.7" r="3.4"/>
			
				<circle fill="none" stroke="#FEBC11" stroke-width="2" stroke-linejoin="bevel" stroke-miterlimit="10" cx="36.4" cy="84.7" r="7.9"/>
			
				<circle fill="none" stroke="#FEBC11" stroke-width="2" stroke-linejoin="bevel" stroke-miterlimit="10" cx="108.6" cy="80.9" r="5.4"/>
			
				<circle fill="none" stroke="#FEBC11" stroke-width="2" stroke-linejoin="bevel" stroke-miterlimit="10" cx="119.1" cy="74.9" r="2.2"/>
			
				<circle fill="none" stroke="#FEBC11" stroke-width="2" stroke-linejoin="bevel" stroke-miterlimit="10" cx="98.5" cy="66.5" r="1.9"/>
			
				<circle fill="none" stroke="#FEBC11" stroke-width="2" stroke-linejoin="bevel" stroke-miterlimit="10" cx="19" cy="66.1" r="1.4"/>
		</g>
	</g>
</g>
</svg>
